<svg width="50" height="50" fill="none" xmlns="http://www.w3.org/2000/svg"><path d="M34 0H16C7.163 0 0 7.163 0 16v18c0 8.837 7.163 16 16 16h18c8.837 0 16-7.163 16-16V16c0-8.837-7.163-16-16-16Z" fill="#FF5226"/><path fill-rule="evenodd" clip-rule="evenodd" d="m50 31.662-.04-.066-7.163 1.637L45.95 20.02l-8.055-5.387-9.69 12.183 3.998-16.035-11.075-7.398L.14 36.13a15.985 15.985 0 0 0 6.05 10.51l15.228-23.712-4.146 16.66 9.457 1.666 8.883-11.161-2.972 12.56 16.377-3.12C49.652 37.81 50 35.945 50 34v-2.338Z" fill="#FD0"/><path fill-rule="evenodd" clip-rule="evenodd" d="m6.19 46.641 15.23-23.713-4.146 16.66 9.457 1.666 8.883-11.161-2.972 12.56 8.284-1.578 5.025-21.055-8.056-5.387-9.689 12.183 3.998-16.035-11.076-7.398L.142 36.13a15.985 15.985 0 0 0 6.05 10.51Z" fill="#FD0"/></svg>