<svg width="50" height="50" fill="none" xmlns="http://www.w3.org/2000/svg"><path fill-rule="evenodd" clip-rule="evenodd" d="M50 34V16C50 7.167 42.843.006 34.011 0H15.99a16.1 16.1 0 0 0-2.766.24L34.79 49.98C43.26 49.57 50 42.573 50 34Z" fill="#FC3F1D"/><path fill-rule="evenodd" clip-rule="evenodd" d="M50 34V16C50 7.167 42.843.006 34.011 0H15.99a16.1 16.1 0 0 0-2.766.24L34.79 49.98C43.26 49.57 50 42.573 50 34Z" fill="#2B2B2B"/><path fill-rule="evenodd" clip-rule="evenodd" d="M42.223 21.072c-.574-1.394-1.683-2.485-3.225-3.184.253-1.19.338-2.156.364-2.789H36.71c-.026.48-.093 1.192-.27 2.068-2.07-.292-4.402-.009-6.637.793a40.698 40.698 0 0 1-.49-3.978c7.957-.449 12.653-2.326 12.87-2.416l-1.02-2.396c-.05.02-4.494 1.783-11.953 2.216-.01-1.789-.07-1.779.026-2.374l-2.657-.028c-.046.504-.035 1.021-.025 2.494l-.245.005a61.406 61.406 0 0 1-5.11-.22l-.495 2.628c.78.066 3.162.19 5.309.19l.316-.001c.112-.001.217-.006.33-.007.104 1.482.305 3.179.658 5.031-3.522 2.05-6.317 6.029-4.894 9.264.599 1.358 1.753 2.229 3.252 2.45.252.04.51.057.778.057 1.516 0 3.254-.602 4.914-1.625 1.087 1.583 1.962 2.416 2.041 2.488l1.823-1.885c-.018-.016-.787-.75-1.757-2.19.434-.39.856-.8 1.246-1.246a18.914 18.914 0 0 0 3.544-5.979c.599.338 1.189.847 1.5 1.605 1.062 2.577-.471 5.559-1.899 6.852l1.8 1.906c2.375-2.152 4.018-6.185 2.559-9.73ZM26.07 28.253c-.601-.09-.977-.372-1.215-.914-.655-1.49.767-3.921 3.085-5.543a26.188 26.188 0 0 0 2.078 5.229c-1.417.897-2.866 1.385-3.948 1.228Zm6.635-3.525c-.186.212-.385.41-.583.609a23.953 23.953 0 0 1-1.78-4.798c1.482-.586 3.01-.897 4.427-.897.322 0 .638.015.948.048a16.35 16.35 0 0 1-3.012 5.038Z" fill="#fff"/><path fill-rule="evenodd" clip-rule="evenodd" d="M14.203.1C6.213.993 0 7.77 0 16v18c0 8.837 7.163 16 16 16h18c.607 0 1.207-.034 1.797-.1L14.203.1Z" fill="#FC3F1D"/><path fill-rule="evenodd" clip-rule="evenodd" d="M14.203.1C6.213.993 0 7.77 0 16v18c0 8.837 7.163 16 16 16h18c.607 0 1.207-.034 1.797-.1L14.203.1Z" fill="url(#paint0_linear_16226_4432)" fill-opacity=".4"/><path fill-rule="evenodd" clip-rule="evenodd" d="M15.264 18.262 6.64 38.184h3.529l2.12-5.323h8.722l2.12 5.323h3.528l-8.623-19.922h-2.773Zm1.386 4.101 3.213 7.813h-6.425l3.212-7.813Z" fill="#fff"/><defs><linearGradient id="paint0_linear_16226_4432" x1="65.238" y1="-5.725" x2="11.972" y2="40.169" gradientUnits="userSpaceOnUse"><stop stop-color="#fff"/><stop offset="1" stop-color="#fff" stop-opacity="0"/></linearGradient></defs></svg>