<svg width="50" height="50" fill="none" xmlns="http://www.w3.org/2000/svg"><rect width="50" height="50" rx="16" fill="#2697D7"/><rect width="50" height="50" rx="16" fill="#A9E6FD"/><path d="M45.267 25.52c0-11.384-9.228-20.612-20.61-20.612-10.06 0-18.436 7.207-20.248 16.739l40.684 6.566c.115-.882.174-1.781.174-2.694Z" fill="#FC3F1D"/><path d="M45.267 25.52c0-11.384-9.228-20.612-20.61-20.612-10.06 0-18.436 7.207-20.248 16.739l40.684 6.566c.115-.882.174-1.781.174-2.694Z" fill="url(#paint0_linear_2318_12684)"/><path fill-rule="evenodd" clip-rule="evenodd" d="M27.344 11.056c.706.123 1.179.795 1.056 1.5l-4.276 24.592a3.113 3.113 0 0 0 6.131 1.066l.168-.964a1.298 1.298 0 0 1 2.557.445l-.167.963a5.708 5.708 0 0 1-11.246-1.955l4.276-24.591a1.298 1.298 0 0 1 1.5-1.056Z" fill="#000"/><path d="M45.267 25.52c0-11.384-9.228-20.612-20.61-20.612-10.06 0-18.436 7.207-20.248 16.739l40.684 6.566c.115-.882.174-1.781.174-2.694Z" fill="url(#paint1_linear_2318_12684)"/><path fill-rule="evenodd" clip-rule="evenodd" d="M24.207 27.938c7.916 1.319 20.465 1.895 20.874.315.41-1.58-7.803-4.392-19.033-6.216-2.733-.444-21.168-3.086-21.631-.39 0 2.122 11.108 4.844 19.79 6.29Z" fill="#D12000"/><mask id="mask0_2318_12684" style="mask-type:alpha" maskUnits="userSpaceOnUse" x="4" y="20" width="42" height="10"><path fill-rule="evenodd" clip-rule="evenodd" d="M24.208 27.938c7.915 1.319 20.464 1.895 20.873.315.41-1.58-7.803-4.392-19.033-6.216-2.732-.444-21.168-3.086-21.631-.39 0 2.122 11.108 4.844 19.79 6.29Z" fill="#D12000"/></mask><g mask="url(#mask0_2318_12684)"><path fill-rule="evenodd" clip-rule="evenodd" d="M27.343 11.054c.706.123 1.18.795 1.056 1.501l-4.275 24.592a3.112 3.112 0 0 0 6.13 1.066l.168-.964a1.298 1.298 0 1 1 2.558.444l-.168.964a5.708 5.708 0 0 1-11.245-1.955l4.275-24.591a1.298 1.298 0 0 1 1.501-1.057Z" fill="#000"/></g><defs><linearGradient id="paint0_linear_2318_12684" x1="18.559" y1="50.575" x2="24.191" y2="12.585" gradientUnits="userSpaceOnUse"><stop stop-color="#fff"/><stop offset="1" stop-color="#fff" stop-opacity="0"/></linearGradient><linearGradient id="paint1_linear_2318_12684" x1="27.804" y1="11.71" x2="22.734" y2="42.654" gradientUnits="userSpaceOnUse"><stop stop-color="#FC3F1D"/><stop offset="1" stop-color="#FC3F1D" stop-opacity="0"/></linearGradient></defs></svg>