<svg width="50" height="50" fill="none" xmlns="http://www.w3.org/2000/svg"><rect width="50" height="50" rx="16" fill="#FFE033"/><path d="M38.28 34.94c-3 2.66-6.92 4.26-11.2 4.26-8.97 0-15.69-6.95-15.69-14.9 0-7.46 5.95-13.56 13.34-13.56 6.96 0 12 5.4 12 11.25 0 5.48-4.33 9.93-9.65 9.93-4.86 0-8.29-3.68-8.29-7.61 0-3.53 2.73-6.3 5.94-6.3 2.84 0 4.6 2.08 4.6 3.98 0 1.65-1.17 2.65-2.25 2.65-.38 0-.52-.08-.68-.17a2.13 2.13 0 0 0-1.99-3.44 2.8 2.8 0 0 0-1.94 1.33 3.66 3.66 0 0 0-.54 1.95c0 2.8 2.61 4.62 5.15 4.62 3.71 0 6.5-3.24 6.5-6.94 0-4.52-3.92-8.26-8.85-8.26-5.73 0-10.2 4.85-10.2 10.58 0 6.48 5.53 11.9 12.56 11.9 7.76 0 13.9-6.47 13.9-14.22 0-8.33-7.06-15.53-16.26-15.53-9.8 0-17.6 8.07-17.6 17.85 0 10.43 8.76 19.17 19.96 19.17 5.35 0 10.26-2.01 14-5.32l-2.8-3.22Z" fill="#000"/></svg>